# xmcd
#
# Track frame offsets:
#	150
#	22772
#	37883
#	54400
#	68901
#	88161
#	108527
#	125517
#	137882
#	152799
#	167600
#	192891
#	222180
#	242369
#	256599
#
# Disc length: 3584 seconds
#
# Revision: 1
# Processed by: cddbd v1.5.2PL0 Copyright (c) Steve Scherf et al.
# Submitted via: audiograbber 1.83.01
#
DISCID=c10dfe0f
DTITLE=Harry Nilsson - Pussy Cats
DYEAR=1974
DGENRE=Rock
TTITLE0=Many Rivers to Cross
TTITLE1=Subterranean Homesick Blues
TTITLE2=Don't Forget me
TTITLE3=All My Life
TTITLE4=Old Forgotten Soldier
TTITLE5=Save the Last Dance for Me
TTITLE6=Mucho Mungo/Mt. Elga
TTITLE7=Loop de Loop
TTITLE8=Black Sails
TTITLE9=Rock Around the Clock
TTITLE10=Down By The Sea (alternate version)
TTITLE11=The Flying Saucer Song (alternate version)
TTITLE12=Save the Last Dance for Me (alternate version)
TTITLE13=Old Forgotten Soldier (Demo 1)
TTITLE14=Old Forgotten Soldier (Demo 2)
EXTD=
EXTT0=
EXTT1=
EXTT2=
EXTT3=
EXTT4=
EXTT5=
EXTT6=
EXTT7=
EXTT8=
EXTT9=
EXTT10=
EXTT11=
EXTT12=
EXTT13=
EXTT14=
PLAYORDER=
